# Blender v2.75 (sub 0) OBJ File: 'TEST.blend'
# www.blender.org
mtllib gainomax.mtl
o OBJ_object_Capture_2014_12_09_12_04_46_Capture_2014_12_09_12_04_46_
v -2.283424 14.349935 3.673311
v -4.240092 13.670758 1.454571
v -6.507698 13.952649 3.742419
v 7.262971 0.810190 -5.204229
v 2.538156 -6.565977 -4.141358
v 1.620331 7.606987 -4.314352
v -1.724175 -11.693483 0.817438
v -6.715697 -12.565104 5.706664
v -2.927962 -12.457508 -0.070768
v -7.215314 -6.456934 5.867039
v -1.425041 -0.152582 5.061876
v -7.670636 2.475492 5.483560
v -5.785563 -12.690300 -4.010273
v -5.236371 8.752456 -4.008366
v 4.743979 13.051877 -5.279875
v 1.196307 13.019005 -2.708465
v 4.008387 13.207810 -2.287055
v -0.521787 -12.606456 5.619862
v -0.556962 -7.023348 5.730143
v 7.460419 -3.684013 5.117774
v 8.308604 -0.228322 3.816679
v 7.710064 4.296336 4.803788
v -8.343046 8.166426 -1.069285
v -7.789625 7.590510 -2.011311
v -7.345262 9.773444 2.168375
v -8.118085 9.692280 -4.071015
v -7.750122 13.136933 -4.539712
v -0.622522 13.900280 3.546229
v -1.591867 13.308351 -1.705860
v 7.863245 8.494708 0.317967
v 7.940939 9.299240 4.541413
v 7.980754 6.582815 -2.700677
v 8.022278 11.725597 2.718863
v -8.020059 -6.310905 -3.955569
v -8.344841 0.743287 -1.602763
v -7.739697 0.393183 -4.314265
v -7.302046 -12.590530 5.699355
v 8.404346 -9.296000 3.815575
v 7.591933 -12.803041 -4.630351
v 8.209819 -3.390380 -1.955608
v -7.910909 10.653834 1.772804
v 0.693314 12.926205 -5.332725
v 2.458430 13.696095 4.792911
v 5.118666 13.444922 0.677694
v 1.588018 13.398636 0.252999
v 0.925851 -12.989287 -4.074831
v 3.808555 -12.287940 -1.516524
v -0.700108 -12.032034 -1.343356
v -7.538475 9.946956 -1.691433
v -7.781107 13.318521 -1.810285
v -7.625415 13.440309 5.015316
v -7.538025 6.993265 5.367044
v -4.695478 10.517159 4.815267
v -1.286141 13.251580 4.936697
v 7.167780 13.247000 -5.431455
v 7.597725 13.434662 -2.242821
v 6.332033 -11.978476 -4.904547
v 8.102002 10.656929 -2.255231
v 3.201431 -12.219514 1.190694
v 7.789046 -12.845991 1.110633
v -7.654453 -12.786229 -0.082718
v -0.389214 4.759710 4.839912
v -4.658782 -12.171223 -1.658612
v -8.030622 -12.665165 -3.912960
v -7.872452 11.254714 3.983961
v -7.951253 7.727407 -4.168590
v 7.270555 8.677565 -5.176141
v 8.114851 8.870473 -2.476515
v 0.634420 -12.913797 4.309877
v -7.847153 -6.886598 4.495509
v 9.459331 8.731693 -1.680602
v 3.867815 -11.946868 5.533543
v 7.389042 -6.975028 -4.976043
v 7.937281 -12.669809 4.837329
v -3.045375 13.242179 -4.498154
v -7.517806 13.560882 0.936529
v 7.835898 13.789289 4.312697
vt 0.742403 0.393365
vt 0.778179 0.349679
vt 0.821607 0.393148
vt 0.257129 0.687530
vt 0.401655 0.783211
vt 0.121066 0.797368
vt 0.729847 0.109416
vt 0.829843 0.019250
vt 0.754572 0.128665
vt 0.393264 0.199730
vt 0.275602 0.314327
vt 0.222836 0.196462
vt 0.522709 0.949333
vt 0.095968 0.933775
vt 0.599913 0.223462
vt 0.670379 0.271409
vt 0.615869 0.281551
vt 0.511239 0.204225
vt 0.516715 0.324451
vt 0.408604 0.327048
vt 0.347205 0.483008
vt 0.280628 0.512672
vt 0.194377 0.490629
vt 0.103358 0.077874
vt 0.116865 0.059763
vt 0.081531 0.141575
vt 0.076508 0.991108
vt 0.007070 0.983014
vt 0.710084 0.393470
vt 0.725138 0.289899
vt 0.112015 0.575704
vt 0.099050 0.496693
vt 0.146606 0.633989
vt 0.053229 0.529791
vt 0.383537 0.009284
vt 0.249660 0.059688
vt 0.254355 0.005940
vt 0.511017 0.192109
vt 0.456192 0.513046
vt 0.524995 0.680397
vt 0.340047 0.624455
vt 0.062220 0.133889
vt 0.678848 0.220161
vt 0.649969 0.419213
vt 0.595788 0.340186
vt 0.664493 0.329920
vt 0.675113 0.205204
vt 0.621561 0.150472
vt 0.709561 0.150606
vt 0.074840 0.019262
vt 0.071374 0.064636
vt 0.007663 0.017161
vt 0.008605 0.069624
vt 0.012979 0.199810
vt 0.136924 0.199782
vt 0.069907 0.255900
vt 0.723530 0.423970
vt 0.552348 0.222002
vt 0.545652 0.284596
vt 0.508743 0.706824
vt 0.532819 0.816208
vt 0.067242 0.622515
vt 0.010346 0.681232
vt 0.013183 0.615691
vt 0.635266 0.098009
vt 0.545143 0.096376
vt 0.845606 0.131636
vt 0.841212 0.019633
vt 0.181819 0.336138
vt 0.806322 0.208281
vt 0.785793 0.161012
vt 0.850506 0.206600
vt 0.053870 0.177296
vt 0.112823 0.015082
vt 0.102531 0.682912
vt 0.102434 0.626041
vt 0.686771 0.037415
vt 0.400301 0.170789
vt 0.018317 0.322721
vt 0.096218 0.608942
vt 0.261850 0.985817
vt 0.511432 0.079971
vt 0.710641 0.012853
vt 0.506283 0.410630
vt 0.526999 0.565993
vt 0.409627 0.686389
vt 0.624711 0.005940
vt 0.522086 0.491481
vt 0.843245 0.232319
vt 0.844912 0.285293
vt 0.752112 0.235094
vt 0.840911 0.338787
vt 0.844912 0.417695
vt 0.011676 0.395532
vt 0.012359 0.812198
vt 0.014663 0.500561
vt 0.544699 0.412937
vt 0.521904 0.994060
vt 0.395418 0.992953
vt 0.544699 0.208281
vt 0.115791 0.988235
vt 0.006122 0.888894
vt 0.005940 0.121477
vt 0.012983 0.730594
vt 0.505907 0.005940
vt 0.545319 0.023890
vn 0.094100 0.984600 0.147500
vn -0.016700 0.986300 -0.163900
vn -0.143700 0.981800 0.123900
vn 0.523900 -0.008800 -0.851700
vn -0.110400 0.015400 -0.993700
vn -0.089300 -0.080100 -0.992800
vn 0.120300 -0.992100 0.035600
vn 0.034400 -0.706600 0.706800
vn 0.199300 -0.979700 0.018400
vn -0.507700 0.008400 0.861400
vn 0.046700 0.060700 0.997000
vn -0.656700 0.051000 0.752400
vn -0.034500 -0.779900 -0.624900
vn -0.019100 -0.052000 -0.998400
vn -0.085800 0.645500 -0.758900
vn 0.001700 0.986500 -0.163800
vn -0.040300 0.996200 -0.077200
vn 0.035600 -0.632700 0.773600
vn 0.033400 0.038700 0.998700
vn 0.481100 0.028500 0.876200
vn 0.966000 0.014900 0.257900
vn 0.481000 0.011600 0.876600
vn -0.846300 -0.531600 0.032700
vn -0.994800 0.022000 0.099200
vn -0.965700 -0.226200 0.127500
vn -0.804900 0.032000 -0.592500
vn -0.579600 0.520700 -0.626800
vn 0.078300 0.991500 0.103800
vn 0.028100 0.995700 -0.088400
vn 0.968200 -0.197200 0.153600
vn 0.733100 0.038000 0.679000
vn 0.989900 -0.002800 -0.141500
vn 0.947600 -0.162600 0.275000
vn -0.760900 -0.038500 -0.647700
vn -0.998800 0.013700 -0.046800
vn -0.565000 0.000500 -0.825100
vn -0.528400 -0.606600 0.593900
vn 0.977100 -0.029500 0.210800
vn 0.553700 -0.641400 -0.531000
vn 0.989500 0.004300 -0.144200
vn -0.984200 -0.113300 0.135900
vn -0.033800 0.593000 -0.804400
vn 0.039800 0.720800 0.692000
vn -0.033100 0.997400 -0.064200
vn 0.025100 0.996200 -0.082600
vn -0.032800 -0.939500 -0.341000
vn -0.066400 -0.992200 0.104900
vn 0.009900 -0.980500 0.196000
vn -0.917400 0.017300 -0.397400
vn -0.715100 0.696200 -0.061300
vn -0.576000 0.518400 0.632100
vn -0.671500 0.036900 0.740000
vn 0.050400 0.007100 0.998700
vn 0.029900 0.464700 0.884900
vn 0.453000 0.589300 -0.669000
vn 0.581000 0.802100 -0.137900
vn -0.003500 -0.170500 -0.985300
vn 0.787600 0.096700 -0.608600
vn -0.073700 -0.993600 -0.085700
vn 0.594100 -0.804300 -0.006500
vn -0.616700 -0.786700 0.027900
vn 0.019500 0.023600 0.999500
vn 0.063400 -0.997700 -0.020900
vn -0.582800 -0.608600 -0.538400
vn -0.997900 -0.019800 0.062000
vn -0.559000 -0.015000 -0.829000
vn 0.551100 -0.033000 -0.833800
vn 0.904200 -0.176200 -0.388900
vn 0.015500 -0.999300 0.034200
vn -0.974600 -0.027500 0.222300
vn 0.807300 -0.515600 -0.286900
vn 0.056900 -0.396000 0.916500
vn 0.625600 -0.009600 -0.780100
vn 0.576600 -0.624600 0.526600
vn -0.070800 0.715800 -0.694600
vn -0.655700 0.753400 -0.049000
vn 0.550300 0.639700 0.536600
usemtl Material.001
s 1
f 1/1/1 2/2/2 3/3/3
f 4/4/4 5/5/5 6/6/6
f 7/7/7 8/8/8 9/9/9
f 10/10/10 11/11/11 12/12/12
f 5/5/5 13/13/13 14/14/14
f 15/15/15 16/16/16 17/17/17
f 8/18/8 18/19/18 19/20/19
f 20/21/20 21/22/21 22/23/22
f 23/24/23 24/25/24 25/26/25
f 14/14/14 26/27/26 27/28/27
f 28/29/28 29/30/29 2/2/2
f 30/31/30 31/32/31 32/33/32
f 30/31/30 33/34/33 31/32/31
f 34/35/34 35/36/35 36/37/36
f 10/10/10 37/38/37 8/18/8
f 38/39/38 39/40/39 40/41/40
f 25/26/25 41/42/41 23/24/23
f 16/16/16 15/15/15 42/43/42
f 16/16/16 29/30/29 17/17/17
f 43/44/43 44/45/44 45/46/45
f 46/47/46 47/48/47 48/49/48
f 40/41/40 21/22/21 38/39/38
f 26/50/26 49/51/49 27/52/27
f 49/51/49 23/24/23 50/53/50
f 51/54/51 52/55/52 53/56/53
f 28/29/28 1/1/1 54/57/54
f 55/58/55 15/15/15 56/59/56
f 57/60/57 39/40/39 46/61/46
f 58/62/58 55/63/55 56/64/56
f 10/10/10 19/20/19 11/11/11
f 7/7/7 47/48/47 59/65/59
f 46/61/46 13/13/13 57/60/57
f 47/48/47 60/66/60 59/65/59
f 13/13/13 5/5/5 57/60/57
f 61/67/61 8/8/8 37/68/37
f 2/2/2 1/1/1 28/29/28
f 20/21/20 62/69/62 11/11/11
f 13/70/13 46/47/46 48/49/48
f 63/71/63 61/67/61 64/72/64
f 9/9/9 8/8/8 61/67/61
f 25/26/25 65/73/65 41/42/41
f 65/73/65 25/26/25 52/55/52
f 45/46/45 44/45/44 17/17/17
f 24/25/24 49/51/49 26/50/26
f 66/74/66 36/37/36 35/36/35
f 4/4/4 32/33/32 40/41/40
f 32/33/32 31/32/31 40/41/40
f 67/75/67 55/63/55 68/76/68
f 7/7/7 69/77/69 8/8/8
f 12/12/12 70/78/70 10/10/10
f 53/56/53 54/79/54 51/54/51
f 70/78/70 12/12/12 35/36/35
f 28/29/28 45/46/45 29/30/29
f 56/59/56 17/17/17 44/45/44
f 56/64/56 71/80/71 58/62/58
f 14/14/14 13/13/13 36/81/36
f 37/38/37 70/78/70 61/82/61
f 8/8/8 69/77/69 18/83/18
f 18/19/18 72/84/72 19/20/19
f 19/20/19 10/10/10 8/18/8
f 9/9/9 48/49/48 7/7/7
f 39/40/39 38/39/38 60/85/60
f 4/4/4 73/86/73 57/60/57
f 57/60/57 5/5/5 4/4/4
f 18/83/18 69/77/69 72/87/72
f 74/88/74 60/85/60 38/39/38
f 35/36/35 26/50/26 66/74/66
f 52/55/52 11/11/11 53/56/53
f 62/69/62 53/56/53 11/11/11
f 27/89/27 50/90/50 75/91/75
f 29/30/29 50/90/50 76/92/76
f 29/30/29 76/92/76 2/2/2
f 51/54/51 65/73/65 52/55/52
f 3/3/3 51/93/51 54/57/54
f 43/94/43 54/79/54 62/69/62
f 4/4/4 6/6/6 67/75/67
f 14/14/14 42/95/42 6/6/6
f 29/30/29 45/46/45 17/17/17
f 33/34/33 71/80/71 77/96/77
f 77/96/77 71/80/71 56/64/56
f 21/22/21 40/41/40 31/32/31
f 44/45/44 77/97/77 56/59/56
f 32/33/32 68/76/68 30/31/30
f 13/13/13 64/98/64 34/99/34
f 36/81/36 13/13/13 34/99/34
f 7/7/7 48/49/48 47/48/47
f 60/66/60 47/48/47 39/100/39
f 19/20/19 72/84/72 20/21/20
f 74/88/74 38/39/38 20/21/20
f 66/101/66 14/14/14 36/81/36
f 26/50/26 35/36/35 24/25/24
f 11/11/11 52/55/52 12/12/12
f 25/26/25 35/36/35 12/12/12
f 14/14/14 27/28/27 75/102/75
f 42/95/42 14/14/14 75/102/75
f 29/30/29 75/91/75 50/90/50
f 41/42/41 65/73/65 51/54/51
f 76/103/76 41/42/41 51/54/51
f 62/69/62 54/79/54 53/56/53
f 3/3/3 2/2/2 76/92/76
f 6/6/6 5/5/5 14/14/14
f 67/75/67 15/104/15 55/63/55
f 68/76/68 55/63/55 58/62/58
f 58/62/58 71/80/71 68/76/68
f 15/15/15 17/17/17 56/59/56
f 30/31/30 68/76/68 71/80/71
f 33/34/33 77/96/77 31/32/31
f 13/70/13 63/71/63 64/72/64
f 48/49/48 9/9/9 63/71/63
f 64/105/64 61/82/61 70/78/70
f 46/47/46 39/100/39 47/48/47
f 39/40/39 57/60/57 73/86/73
f 39/40/39 73/86/73 40/41/40
f 74/106/74 72/87/72 69/77/69
f 59/65/59 74/106/74 69/77/69
f 24/25/24 23/24/23 49/51/49
f 51/93/51 3/3/3 76/92/76
f 75/91/75 16/16/16 42/43/42
f 67/75/67 6/6/6 15/104/15
f 31/32/31 22/23/22 21/22/21
f 62/69/62 22/23/22 43/94/43
f 54/57/54 43/44/43 28/29/28
f 44/45/44 43/44/43 77/97/77
f 33/34/33 30/31/30 71/80/71
f 48/49/48 63/71/63 13/70/13
f 10/10/10 70/78/70 37/38/37
f 40/41/40 73/86/73 4/4/4
f 26/27/26 14/14/14 66/101/66
f 20/21/20 11/11/11 19/20/19
f 34/35/34 70/78/70 35/36/35
f 59/65/59 69/77/69 7/7/7
f 25/26/25 24/25/24 35/36/35
f 62/69/62 20/21/20 22/23/22
f 41/42/41 76/103/76 23/24/23
f 75/91/75 29/30/29 16/16/16
f 1/1/1 3/3/3 54/57/54
f 6/6/6 42/95/42 15/104/15
f 68/76/68 32/33/32 67/75/67
f 22/23/22 31/32/31 43/94/43
f 61/67/61 63/71/63 9/9/9
f 38/39/38 21/22/21 20/21/20
f 50/53/50 27/52/27 49/51/49
f 45/46/45 28/29/28 43/44/43
f 70/78/70 34/35/34 64/105/64
f 12/12/12 52/55/52 25/26/25
f 77/96/77 43/94/43 31/32/31
f 72/84/72 74/88/74 20/21/20
f 67/75/67 32/33/32 4/4/4
f 76/103/76 50/53/50 23/24/23
f 59/65/59 60/66/60 74/106/74
